<?xml version="1.0" encoding="utf-8"?>
<!-- Generator: Adobe Illustrator 24.3.0, SVG Export Plug-In . SVG Version: 6.00 Build 0)  -->
<svg version="1.1" id="Layer_1" xmlns="http://www.w3.org/2000/svg" xmlns:xlink="http://www.w3.org/1999/xlink" x="0px" y="0px"
	 viewBox="0 0 65 76" style="enable-background:new 0 0 65 76;" xml:space="preserve">
<style type="text/css">
	.st0{fill:#FFE600;}
	.st1{fill:#181D29;}
</style>
<polygon class="st0" points="52.1,0 0,19 0,19 52.1,9.8 52.1,0 "/>
<path class="st1" d="M5.4,63.9c0-0.9-0.6-1.3-0.9-1.4c0.4-0.2,0.7-0.7,0.7-1.3c0-1.1-0.7-1.7-2-1.7H0.5v6.4h2.7
	C4.6,65.9,5.4,65.2,5.4,63.9 M3.2,64.9H1.7V63h1.5c0.6,0,1,0.3,1,0.9C4.1,64.5,3.8,64.9,3.2,64.9 M3.2,62H1.6v-1.4h1.4
	c0.6,0,0.8,0.2,0.8,0.7C3.9,61.6,3.8,62,3.2,62 M6.2,63.9v-2.6h1.2v2.6c0,0.8,0.3,1.1,0.9,1.1c0.6,0,0.9-0.4,0.9-1.1v-2.6h1.2v4.7
	H9.1v-0.4C8.8,65.9,8.4,66,8,66C6.4,66,6.2,64.7,6.2,63.9 M23.9,65.9h-1.2v-4.7h1.2v0.4c0.3-0.3,0.7-0.5,1.2-0.5
	c1.1,0,1.7,0.7,1.7,2.1v2.6h-1.2v-2.6c0-0.8-0.3-1.1-0.8-1.1c-0.6,0-0.9,0.4-0.9,1.1V65.9z M12.5,63.6v2.3h-1.2v-4.7h1.2V63.6z
	 M13.5,59.9l1.2-0.6v4.2v2.4h-1.2V59.9z M18.3,61.6c-0.3-0.3-0.6-0.4-1-0.4c-1.1,0-1.8,0.9-1.8,2.4c0,1.6,0.7,2.5,1.8,2.5
	c0.4,0,0.8-0.1,1.1-0.5v0.4h1.2v-6.6l-1.2,0.6V61.6z M17.5,65c-0.4,0-0.9-0.3-0.9-1.4c0-1.1,0.5-1.3,0.9-1.3c0.4,0,0.7,0.3,0.8,0.5
	v1.8C18.2,64.7,17.9,65,17.5,65 M43.6,61.2c-0.4,0-0.7,0.2-1,0.4v-2.2L41.4,60v5.9h1.2v-0.3c0.3,0.3,0.7,0.4,1.1,0.4
	c1.2,0,1.8-0.9,1.8-2.5C45.4,62.1,44.7,61.2,43.6,61.2 M43.3,62.2c0.4,0,0.9,0.3,0.9,1.3c0,1-0.3,1.4-0.8,1.4
	c-0.4,0-0.7-0.3-0.8-0.4v-1.8C42.7,62.4,43,62.2,43.3,62.2 M30.4,61.6c-0.3-0.3-0.6-0.4-1-0.4c-1.1,0-1.8,0.9-1.8,2.4
	c0,1.6,0.7,2.5,1.8,2.5c0.4,0,0.8-0.2,1.1-0.5v0.1c0,0.5,0,1.2-1.5,1.2l-0.1,0l0.4,0.9l0,0c1.5,0,2.3-0.8,2.3-2.3v-4.2h-1.2V61.6z
	 M30.4,62.7v1.8C30.2,64.7,30,65,29.6,65c-0.4,0-0.9-0.3-0.9-1.4c0-1.1,0.5-1.3,0.9-1.3C30,62.2,30.3,62.5,30.4,62.7 M35.2,62.4
	c0.4-0.2,0.7-0.3,1.2-0.3c0.5,0,0.8,0.2,0.8,0.7v0.3c-0.3-0.1-0.7-0.2-1-0.2c-0.9,0-1.9,0.4-1.9,1.5c0,1.2,0.9,1.7,1.7,1.7
	c0.3,0,0.8-0.1,1.1-0.5v0.4h1.2v-3.2c0-1-0.7-1.6-1.9-1.6c-0.6,0-1.2,0.1-1.8,0.5L35.2,62.4z M35.5,64.4c0-0.4,0.3-0.7,0.8-0.7
	c0.3,0,0.6,0.1,0.9,0.2v0.6c-0.1,0.2-0.5,0.5-0.9,0.5C35.8,65.1,35.5,64.8,35.5,64.4 M49.1,64.6c-0.2,0.2-0.5,0.4-0.9,0.4
	c-0.2,0-1-0.1-1-1H50c0-0.1,0-0.2,0-0.3c0-1.5-0.8-2.4-2-2.4c-1.2,0-2.1,1-2.1,2.4c0,1.5,0.9,2.4,2.2,2.4c0.6,0,1.2-0.2,1.7-0.7
	L49.1,64.6z M47.2,63.1c0-0.6,0.4-1,0.9-1c0.6,0,0.9,0.5,0.9,1H47.2z M60.3,64.6c-0.2,0.2-0.5,0.4-0.9,0.4c-0.2,0-1-0.1-1-1h2.9
	c0-0.1,0-0.2,0-0.3c0-1.5-0.8-2.4-2-2.4c-1.2,0-2.1,1-2.1,2.4c0,1.5,0.9,2.4,2.2,2.4c0.6,0,1.2-0.2,1.7-0.7L60.3,64.6z M58.3,63.1
	c0-0.6,0.4-1,0.9-1c0.6,0,0.9,0.5,0.9,1H58.3z M55.5,64.3c0,0.4,0.2,0.6,0.5,0.6c0.2,0,0.5-0.1,0.7-0.2l-0.1,1.1
	C56.3,66,56,66,55.6,66c-0.9,0-1.2-0.8-1.2-1.4v-2.3h-0.7v-1.1h0.7v-1.2l1.2-0.6v1.8h1.1v1.1h-1.1V64.3z M53.3,65.8
	C53,66,52.7,66,52.3,66c-0.9,0-1.2-0.8-1.2-1.4v-2.3h-0.7v-1.1h0.7v-1.2l1.2-0.6v1.8h1v1.1h-1v2c0,0.4,0.2,0.6,0.5,0.6
	c0.2,0,0.5-0.1,0.7-0.2L53.3,65.8z M64.7,62.6c-0.2-0.2-0.5-0.3-0.8-0.3c-0.6,0-0.8,0.3-0.8,1.1v2.5h-1.2v-4.7h1.2v0.4
	c0.3-0.4,0.6-0.5,1-0.5c0.3,0,0.6,0.1,0.9,0.3L64.7,62.6z M12.5,60.1v0.4h-1.2v-1.2h1.2V60.1z M20.5,61.3h1.2v2.4v2.3h-1.2V61.3z
	 M21.7,60v0.6h-1.2v-1.2h1.2V60z M53.4,69.8c-0.3-0.3-0.6-0.4-1-0.4c-1.1,0-1.8,0.9-1.8,2.4c0,1.6,0.7,2.5,1.8,2.5
	c0.4,0,0.8-0.1,1.1-0.5v0.4h1.2v-6.6l-1.2,0.6V69.8z M52.6,73.1c-0.4,0-0.9-0.3-0.9-1.4c0-1.1,0.5-1.3,0.9-1.3
	c0.4,0,0.7,0.3,0.8,0.5v1.8C53.3,72.9,53.1,73.1,52.6,73.1 M14.1,70.7c-0.2-0.2-0.5-0.3-0.8-0.3c-0.6,0-0.8,0.3-0.8,1.1v2.5h-1.2
	v-4.7h1.2v0.4c0.3-0.4,0.6-0.5,1-0.5c0.3,0,0.7,0.1,0.9,0.3L14.1,70.7z M5,69.4h1.1l-1.3,4.7h-1l-0.5-1.9c-0.1-0.3-0.2-0.8-0.3-1
	c0,0.2-0.2,0.8-0.3,1.1l-0.5,1.9h-1l0,0L0,69.4h1.2l0.4,1.7c0.1,0.3,0.2,0.8,0.2,1.1C1.9,72,2,71.5,2.1,71.1l0.5-1.7h1l0.5,1.7
	c0.1,0.3,0.2,0.8,0.3,1.2c0.1-0.3,0.1-0.7,0.2-1.2L5,69.4z M8.5,69.3c-1.2,0-2.1,1-2.1,2.4c0,1.4,0.9,2.4,2.1,2.4
	c1.2,0,2.1-1,2.1-2.4C10.7,70.3,9.8,69.3,8.5,69.3 M8.5,73.1c-0.6,0-0.9-0.5-0.9-1.4c0-0.8,0.4-1.4,0.9-1.4c0.6,0,0.9,0.5,0.9,1.4
	C9.5,72.6,9.1,73.1,8.5,73.1 M47.7,70.7c-0.2-0.2-0.5-0.3-0.8-0.3c-0.6,0-0.8,0.3-0.8,1.1v2.5H45v-4.7h1.2v0.4
	c0.3-0.4,0.6-0.5,1-0.5c0.3,0,0.7,0.1,0.9,0.3L47.7,70.7z M38.6,69.4h1.1l-1.3,4.7h-1L37,72.2c-0.1-0.3-0.2-0.8-0.3-1
	c0,0.2-0.2,0.8-0.3,1.1l-0.5,1.9h-1l0,0l-1.3-4.6h1.2l0.4,1.7c0.1,0.3,0.2,0.8,0.2,1.1c0.1-0.3,0.2-0.9,0.3-1.2l0.5-1.7h1l0.5,1.7
	c0.1,0.3,0.2,0.8,0.3,1.2c0.1-0.3,0.1-0.7,0.2-1.2L38.6,69.4z M42.1,69.3c-1.2,0-2.1,1-2.1,2.4c0,1.4,0.9,2.4,2.1,2.4
	c1.2,0,2.1-1,2.1-2.4C44.3,70.3,43.4,69.3,42.1,69.3 M42.1,73.1c-0.6,0-0.9-0.5-0.9-1.4c0-0.8,0.4-1.4,0.9-1.4
	c0.6,0,0.9,0.5,0.9,1.4C43.1,72.6,42.7,73.1,42.1,73.1 M17.6,71l1.4,3.1h-1.3l-1-2.2l-0.6,0.8v1.4H15v-6l1.2-0.6v3.7
	c0.1-0.2,0.3-0.4,0.4-0.6l0.9-1.2h1.3L17.6,71z M23.1,74.1h-1.2v-4.7h1.2v0.4c0.3-0.3,0.7-0.5,1.2-0.5c1.1,0,1.7,0.7,1.7,2.1v2.6
	h-1.2v-2.6c0-0.8-0.3-1.1-0.8-1.1c-0.6,0-0.9,0.4-0.9,1.1V74.1z M29.6,69.8c-0.3-0.3-0.6-0.4-1-0.4c-1.1,0-1.8,0.9-1.8,2.4
	c0,1.6,0.7,2.5,1.8,2.5c0.4,0,0.8-0.2,1.1-0.5v0.1c0,0.5,0,1.2-1.5,1.2l-0.1,0l0.4,0.9l0,0c1.5,0,2.3-0.8,2.3-2.3v-4.2h-1.2V69.8z
	 M29.6,70.8v1.8c-0.2,0.2-0.4,0.5-0.8,0.5c-0.4,0-0.9-0.3-0.9-1.4c0-1.1,0.5-1.3,0.9-1.3C29.2,70.4,29.5,70.6,29.6,70.8 M19.7,69.4
	h1.2v2.1v2.6h-1.2V69.4z M20.9,68.2v0.6h-1.2v-1.2h1.2V68.2z M48.6,68.1l1.2-0.6v4.2v2.4h-1.2V68.1z M8.4,42.8h9.5v-5.5H8.4v-4.3
	h10.5l-3.5-6H0.5v26.3h21.1v-6H8.4V42.8z M35.6,26.8l-4.5,8.6l-4.5-8.6h-8.7l9.2,15.9v10.4H35V42.8l9.2-15.9H35.6z"/>
</svg>
